
<svg xmlns="http://www.w3.org/2000/svg" viewBox="0 0 320 220" width="320" height="220" role="img" aria-label="A dangerous page intercepted before reaching the senior">
  <defs>
    <radialGradient id="warmth3" cx="50%" cy="40%" r="65%">
      <stop offset="0%" stop-color="#fdf0eb"></stop>
      <stop offset="100%" stop-color="#f5ede0"></stop>
    </radialGradient>
  </defs>
  <rect width="320" height="220" fill="url(#warmth3)"></rect>

  
  <g transform="translate(28 56) rotate(-8 60 50)" opacity="0.85">
    <rect width="120" height="90" rx="6" fill="#ffffff" stroke="#c8b49a" stroke-width="1.5"></rect>
    
    <circle cx="10" cy="9" r="1.6" fill="#9c3520" opacity="0.45"></circle>
    <circle cx="16" cy="9" r="1.6" fill="#9c3520" opacity="0.45"></circle>
    <circle cx="22" cy="9" r="1.6" fill="#9c3520" opacity="0.45"></circle>
    
    <rect x="8" y="22" width="104" height="22" rx="3" fill="#fce4ec"></rect>
    <text x="60" y="38" text-anchor="middle" font-family="Outfit, sans-serif" font-weight="800" font-size="12" fill="#b82020" letter-spacing="0.4">CLICK NOW!!!</text>
    
    <rect x="8" y="50" width="60" height="6" rx="2" fill="#c8b49a" opacity="0.5"></rect>
    <rect x="8" y="60" width="84" height="6" rx="2" fill="#c8b49a" opacity="0.5"></rect>
    <rect x="8" y="70" width="40" height="6" rx="2" fill="#c8b49a" opacity="0.5"></rect>
    
    <rect x="78" y="64" width="34" height="16" rx="3" fill="#b82020"></rect>
    <text x="95" y="76" text-anchor="middle" font-family="Outfit, sans-serif" font-weight="700" font-size="8" fill="#fff">DOWNLOAD</text>
  </g>

  
  <g transform="translate(140 70)">
    
    <path d="M 40 4 L 76 16 L 76 56 Q 76 80, 40 96 Q 4 80, 4 56 L 4 16 Z" fill="#9c3520"></path>
    
    <rect x="14" y="22" width="52" height="42" rx="6" fill="#ffffff"></rect>
    <circle cx="20" cy="29" r="1.2" fill="#9c3520" opacity="0.45"></circle>
    <circle cx="24" cy="29" r="1.2" fill="#9c3520" opacity="0.45"></circle>
    <circle cx="28" cy="29" r="1.2" fill="#9c3520" opacity="0.45"></circle>
    <g transform="translate(40 48) scale(0.084) translate(-128 -128)" fill="#9c3520">
      <path d="M178.3,40A57.6,57.6,0,0,0,128,69.6,57.6,57.6,0,0,0,77.7,40C46.9,40,22,66.1,22,98.1c0,34.4,16.2,67.6,49.5,101.6a263.6,263.6,0,0,0,51.4,40.3,8,8,0,0,0,10.2,0,263.6,263.6,0,0,0,51.4-40.3c33.3-34,49.5-67.2,49.5-101.6C234,66.1,209.1,40,178.3,40Z"></path>
    </g>
  </g>

  
  <g>
    
    <path d="M 226 220 Q 232 168, 268 168 L 290 168 Q 314 168, 314 220 Z" fill="#c2872a"></path>
    
    <circle cx="278" cy="142" r="20" fill="#e5b89c"></circle>
    <path d="M 260 136 Q 258 122, 272 120 Q 282 116, 291 120 Q 298 124, 296 138 L 292 132 Q 285 130, 278 130 Q 268 132, 264 138 Z" fill="#dcc4a4"></path>
    
    <circle cx="271" cy="144" r="4" fill="none" stroke="#1c1814" stroke-width="1.6"></circle>
    <circle cx="284" cy="144" r="4" fill="none" stroke="#1c1814" stroke-width="1.6"></circle>
    <line x1="275" y1="144" x2="280" y2="144" stroke="#1c1814" stroke-width="1.6"></line>
    
    <path d="M 272 152 Q 278 156, 284 152" stroke="#1c1814" stroke-width="1.5" fill="none" stroke-linecap="round"></path>
  </g>

  
  <g stroke="#9c3520" stroke-width="2" stroke-linecap="round" fill="none" opacity="0.5">
    <path d="M 140 100 L 152 100"></path>
    <path d="M 145 90 L 156 95"></path>
    <path d="M 145 110 L 156 105"></path>
  </g>
</svg>