
<svg xmlns="http://www.w3.org/2000/svg" viewBox="0 0 320 220" width="320" height="220" role="img" aria-label="Caregiver and senior looking at a laptop together">
  
  <defs>
    <radialGradient id="warmth" cx="50%" cy="35%" r="65%">
      <stop offset="0%" stop-color="#fdf0eb"></stop>
      <stop offset="100%" stop-color="#f5ede0"></stop>
    </radialGradient>
  </defs>
  <rect width="320" height="220" fill="url(#warmth)"></rect>

  
  <line x1="0" y1="180" x2="320" y2="180" stroke="#c8b49a" stroke-width="2" stroke-linecap="round"></line>

  
  <g>
    
    <path d="M 90 200 Q 90 130, 130 130 L 170 130 Q 210 130, 210 200 Z" fill="#9c3520"></path>
    
    <circle cx="150" cy="100" r="28" fill="#d4a890"></circle>
    
    <path d="M 124 92 Q 122 78, 138 76 Q 150 70, 165 76 Q 180 80, 178 96 L 174 90 Q 168 86, 158 86 Q 145 86, 134 92 Z" fill="#3a2a1c"></path>
    
    <path d="M 116 158 Q 110 156, 108 162 Q 106 170, 114 172 Q 124 170, 128 164 Z" fill="#d4a890"></path>
  </g>

  
  <g>
    
    <path d="M 50 215 Q 60 150, 105 150 L 130 150 Q 155 150, 165 195 L 165 220 L 50 220 Z" fill="#c2872a"></path>
    
    <circle cx="108" cy="128" r="24" fill="#e5b89c"></circle>
    
    <path d="M 86 122 Q 84 104, 100 102 Q 112 96, 124 102 Q 134 108, 132 122 L 128 116 Q 120 112, 108 114 Q 96 116, 90 122 Z" fill="#dcc4a4"></path>
    
    <circle cx="100" cy="132" r="6" fill="none" stroke="#1c1814" stroke-width="2"></circle>
    <circle cx="116" cy="132" r="6" fill="none" stroke="#1c1814" stroke-width="2"></circle>
    <line x1="106" y1="132" x2="110" y2="132" stroke="#1c1814" stroke-width="2"></line>
  </g>

  
  <g transform="translate(190 122)">
    
    <rect x="0" y="0" width="100" height="68" rx="6" fill="#1c1814"></rect>
    <rect x="4" y="4" width="92" height="60" rx="3" fill="#fdf9f4"></rect>
    
    <circle cx="10" cy="11" r="1.4" fill="#9c3520" opacity="0.45"></circle>
    <circle cx="15" cy="11" r="1.4" fill="#9c3520" opacity="0.45"></circle>
    <circle cx="20" cy="11" r="1.4" fill="#9c3520" opacity="0.45"></circle>
    
    <rect x="26" y="8" width="62" height="6" rx="3" fill="#9c3520" opacity="0.13"></rect>
    
    <g transform="translate(50 38) scale(0.082) translate(-128 -128)" fill="#9c3520">
      <path d="M178.3,40A57.6,57.6,0,0,0,128,69.6,57.6,57.6,0,0,0,77.7,40C46.9,40,22,66.1,22,98.1c0,34.4,16.2,67.6,49.5,101.6a263.6,263.6,0,0,0,51.4,40.3,8,8,0,0,0,10.2,0,263.6,263.6,0,0,0,51.4-40.3c33.3-34,49.5-67.2,49.5-101.6C234,66.1,209.1,40,178.3,40Z"></path>
    </g>
    
    <path d="M -4 68 L 104 68 L 110 76 L -10 76 Z" fill="#9c3520"></path>
  </g>
</svg>